<svg width="100" height="100" viewBox="0 0 100 100" fill="none" xmlns="http://www.w3.org/2000/svg">
  <circle cx="50" cy="50" r="45" fill="#F8F9FA" stroke="#3A36E0" stroke-width="3"/>
  <circle cx="50" cy="50" r="8" fill="#3A36E0"/>
  <circle cx="50" cy="20" r="5" fill="#FF6584"/>
  <circle cx="50" cy="80" r="5" fill="#FF6584"/>
  <circle cx="20" cy="50" r="5" fill="#FF6584"/>
  <circle cx="80" cy="50" r="5" fill="#FF6584"/>
  <circle cx="30" cy="30" r="5" fill="#FF6584"/>
  <circle cx="70" cy="70" r="5" fill="#FF6584"/>
  <circle cx="70" cy="30" r="5" fill="#FF6584"/>
  <circle cx="30" cy="70" r="5" fill="#FF6584"/>
  <line x1="50" y1="25" x2="50" y2="42" stroke="#3A36E0" stroke-width="2"/>
  <line x1="50" y1="58" x2="50" y2="75" stroke="#3A36E0" stroke-width="2"/>
  <line x1="25" y1="50" x2="42" y2="50" stroke="#3A36E0" stroke-width="2"/>
  <line x1="58" y1="50" x2="75" y2="50" stroke="#3A36E0" stroke-width="2"/>
  <line x1="34.1" y1="34.1" x2="44.1" y2="44.1" stroke="#3A36E0" stroke-width="2"/>
  <line x1="55.9" y1="55.9" x2="65.9" y2="65.9" stroke="#3A36E0" stroke-width="2"/>
  <line x1="65.9" y1="34.1" x2="55.9" y2="44.1" stroke="#3A36E0" stroke-width="2"/>
  <line x1="44.1" y1="55.9" x2="34.1" y2="65.9" stroke="#3A36E0" stroke-width="2"/>
</svg>